<svg width="2" height="13" viewBox="0 0 2 13" fill="none" xmlns="http://www.w3.org/2000/svg">
<path d="M0 1.98438C0 2.24959 0.105357 2.50395 0.292893 2.69148C0.480429 2.87902 0.734784 2.98438 1 2.98438C1.26522 2.98438 1.51957 2.87902 1.70711 2.69148C1.89464 2.50395 2 2.24959 2 1.98438C2 1.71916 1.89464 1.4648 1.70711 1.27727C1.51957 1.08973 1.26522 0.984375 1 0.984375C0.734784 0.984375 0.480429 1.08973 0.292893 1.27727C0.105357 1.4648 0 1.71916 0 1.98438ZM0 6.98438C0 7.24959 0.105357 7.50395 0.292893 7.69148C0.480429 7.87902 0.734784 7.98438 1 7.98438C1.26522 7.98438 1.51957 7.87902 1.70711 7.69148C1.89464 7.50395 2 7.24959 2 6.98438C2 6.71916 1.89464 6.4648 1.70711 6.27727C1.51957 6.08973 1.26522 5.98438 1 5.98438C0.734784 5.98438 0.480429 6.08973 0.292893 6.27727C0.105357 6.4648 0 6.71916 0 6.98438ZM0 11.9844C0 12.2496 0.105357 12.5039 0.292893 12.6915C0.480429 12.879 0.734784 12.9844 1 12.9844C1.26522 12.9844 1.51957 12.879 1.70711 12.6915C1.89464 12.5039 2 12.2496 2 11.9844C2 11.7192 1.89464 11.4648 1.70711 11.2773C1.51957 11.0897 1.26522 10.9844 1 10.9844C0.734784 10.9844 0.480429 11.0897 0.292893 11.2773C0.105357 11.4648 0 11.7192 0 11.9844Z" fill="#364156"/>
</svg>
