<?xml version="1.0" standalone="no"?>
<!DOCTYPE svg PUBLIC "-//W3C//DTD SVG 20010904//EN"
 "http://www.w3.org/TR/2001/REC-SVG-20010904/DTD/svg10.dtd">
<svg version="1.0" xmlns="http://www.w3.org/2000/svg"
 width="621.000000pt" height="81.000000pt" viewBox="0 0 621.000000 81.000000"
 preserveAspectRatio="xMidYMid meet">

<g transform="translate(0.000000,81.000000) scale(0.100000,-0.100000)"
fill="#000000" stroke="none">
<path d="M703 747 c-12 -27 -47 -37 -124 -37 -35 0 -49 4 -49 14 0 16 -183 31
-188 16 -6 -16 -30 -11 -41 8 -6 9 -10 13 -11 7 0 -44 62 -60 237 -60 84 0
145 -3 135 -7 -15 -6 -14 -7 3 -8 l20 -1 -20 -9 c-11 -5 -33 -9 -50 -10 l-30
-1 24 -13 c20 -11 28 -11 53 3 25 14 29 14 38 1 11 -17 13 -10 10 38 -1 18 4
40 11 48 8 10 9 18 2 25 -6 6 -13 1 -20 -14z"/>
<path d="M972 414 l3 -308 55 0 55 -1 -2 81 c-4 122 7 124 101 17 l78 -88 61
-6 c34 -3 65 -4 70 -1 8 4 -27 50 -102 132 -76 83 -76 86 13 181 42 44 76 85
76 90 0 5 -27 9 -59 9 l-59 0 -78 -85 c-105 -115 -107 -113 -102 109 l3 170
-58 4 -57 3 2 -307z"/>
<path d="M1994 708 c-10 -16 -9 -598 1 -601 6 -1 28 -3 50 -2 32 0 41 4 43 20
7 35 20 40 44 18 56 -53 144 -58 206 -13 60 43 82 93 82 185 0 99 -25 156 -85
190 -58 34 -129 34 -179 0 -20 -14 -41 -25 -45 -25 -14 0 -19 50 -16 143 2 48
1 87 -3 88 -36 5 -94 4 -98 -3z m281 -289 c28 -27 30 -34 30 -105 0 -73 -1
-77 -33 -105 -48 -43 -100 -41 -140 6 -42 47 -49 92 -26 158 32 88 106 108
169 46z"/>
<path d="M488 673 c7 -3 16 -2 19 1 4 3 -2 6 -13 5 -11 0 -14 -3 -6 -6z"/>
<path d="M5080 597 c0 -60 -12 -77 -52 -77 -26 0 -28 -3 -28 -39 0 -39 1 -40
38 -43 l37 -3 5 -120 c3 -70 11 -131 19 -146 22 -43 79 -69 154 -69 75 0 88
10 75 59 -8 30 -12 33 -37 28 -35 -7 -88 24 -96 55 -3 13 -5 61 -3 108 l3 85
60 5 60 5 0 35 c0 35 0 35 -50 38 -27 2 -55 8 -62 14 -8 6 -13 33 -13 64 l0
54 -55 0 -55 0 0 -53z"/>
<path d="M329 631 c11 -7 10 -10 -4 -12 -18 -4 -18 -5 1 -23 18 -19 18 -19
-44 -14 -49 5 -62 3 -62 -8 0 -8 8 -14 18 -14 10 0 25 -9 34 -19 13 -16 30
-19 92 -19 64 -1 99 9 85 23 -11 10 -99 11 -108 2 -8 -8 -11 -7 -11 5 0 25 82
48 171 48 64 0 77 -3 73 -14 -3 -8 -13 -17 -22 -19 -10 -3 -3 -5 14 -6 20 -1
31 -6 31 -16 0 -8 -7 -15 -14 -15 -8 0 -11 -5 -7 -11 4 -6 20 -8 40 -4 27 5
34 3 34 -9 0 -9 -12 -18 -27 -22 -46 -10 -49 -12 -18 -13 59 -1 72 8 78 52 3
23 3 53 0 68 l-5 26 -146 -3 c-81 -2 -136 0 -122 4 31 10 13 17 -50 21 -31 1
-41 -1 -31 -8z m321 -41 c0 -5 -4 -10 -10 -10 -5 0 -10 5 -10 10 0 6 5 10 10
10 6 0 10 -4 10 -10z"/>
<path d="M1620 531 c-118 -26 -180 -98 -180 -211 0 -135 87 -221 222 -219 82
0 142 29 183 87 27 40 30 51 30 125 0 74 -3 87 -30 129 -23 37 -41 52 -80 68
-63 25 -100 30 -145 21z m75 -85 c66 -28 94 -120 61 -200 -38 -92 -160 -86
-196 9 -25 67 -1 152 52 185 39 24 39 24 83 6z"/>
<path d="M2683 529 c-67 -13 -113 -39 -137 -78 -77 -123 -38 -281 81 -332 94
-40 232 -11 282 60 34 47 47 127 33 193 -18 80 -58 123 -139 148 -36 11 -68
20 -72 19 -3 -1 -25 -5 -48 -10z m73 -79 c42 -15 77 -71 82 -134 3 -39 0 -55
-12 -65 -9 -7 -16 -18 -16 -23 0 -20 -46 -47 -80 -48 -68 0 -110 53 -110 140
0 58 19 94 65 121 35 22 34 22 71 9z"/>
<path d="M3588 521 c-52 -18 -92 -51 -116 -96 -23 -42 -22 -179 1 -221 39 -74
112 -108 215 -102 121 6 192 79 200 203 3 47 -1 71 -17 107 -29 61 -56 84
-126 108 -68 23 -93 23 -157 1z m121 -75 c46 -24 61 -57 61 -135 0 -62 -3 -72
-29 -100 -24 -26 -37 -31 -73 -31 -34 0 -49 6 -64 23 -65 73 -56 192 18 237
39 24 50 25 87 6z"/>
<path d="M5536 525 c-107 -30 -167 -131 -148 -252 18 -111 102 -173 233 -173
53 0 130 21 153 41 8 7 -10 69 -21 69 -2 0 -20 -7 -40 -15 -19 -8 -62 -15 -94
-15 -52 0 -61 3 -94 34 -26 25 -36 42 -33 58 3 23 5 23 152 26 l149 3 -6 54
c-6 62 -39 128 -71 144 -44 22 -99 41 -115 40 -9 0 -38 -7 -65 -14z m134 -85
c22 -22 35 -63 26 -85 -4 -12 -24 -15 -94 -15 -119 0 -142 25 -81 88 27 27 38
32 80 32 35 0 54 -5 69 -20z"/>
<path d="M6105 525 c-22 -8 -47 -23 -57 -35 -21 -26 -36 -25 -40 3 -3 19 -10
22 -61 25 l-57 3 2 -208 3 -208 55 0 55 0 5 130 c3 76 10 139 17 152 17 29 68
53 115 53 l38 0 0 44 c0 31 -5 46 -16 50 -9 3 -16 6 -17 6 -1 -1 -20 -7 -42
-15z"/>
<path d="M3168 520 c-41 -12 -84 -46 -108 -86 -18 -28 -23 -52 -23 -113 -1
-66 2 -83 25 -122 52 -88 182 -125 288 -83 39 16 41 18 34 48 -9 45 -12 47
-44 31 -16 -8 -49 -15 -73 -15 -83 0 -128 71 -113 174 4 27 16 52 31 66 32 30
102 38 146 16 38 -19 47 -13 51 32 3 31 0 35 -37 48 -43 15 -134 17 -177 4z"/>
<path d="M4705 514 c-16 -8 -37 -22 -46 -30 -21 -19 -27 -18 -31 9 -3 19 -10
22 -55 25 l-53 3 0 -205 c0 -114 3 -206 8 -207 4 0 27 -1 52 -2 l45 -2 5 143
5 144 33 29 c33 30 63 36 105 20 40 -15 49 -56 46 -200 -3 -82 0 -132 6 -134
8 -3 51 -2 88 2 4 1 7 75 7 166 0 188 -8 217 -65 241 -45 18 -113 18 -150 -2z"/>
<path d="M3993 358 c2 -107 8 -173 17 -191 20 -40 69 -67 124 -67 50 0 78 10
113 43 24 21 22 23 37 -27 4 -11 17 -14 50 -11 25 2 49 6 53 8 5 3 7 95 5 206
l-3 201 -54 0 -55 0 0 -136 0 -136 -34 -34 c-55 -55 -116 -42 -136 27 -6 19
-10 89 -10 156 l0 123 -56 0 -56 0 5 -162z"/>
<path d="M383 488 c18 -6 36 -6 55 0 24 9 20 10 -28 10 -48 0 -52 -1 -27 -10z"/>
<path d="M260 480 c0 -6 11 -15 24 -20 25 -9 96 -75 96 -88 0 -4 9 -13 19 -19
17 -10 18 -9 13 10 -3 12 -10 26 -16 30 -6 5 -3 6 9 4 70 -17 75 -17 75 -3 0
9 -17 16 -50 20 -53 7 -119 38 -133 62 -9 16 -37 19 -37 4z"/>
<path d="M667 456 c-3 -7 -23 -16 -45 -20 -33 -5 -39 -9 -35 -24 2 -11 -2 -26
-10 -34 -10 -9 -12 -20 -7 -29 6 -8 4 -16 -3 -21 -7 -4 7 -8 30 -8 41 0 48 -8
29 -38 -4 -7 -6 -16 -3 -18 2 -3 1 -21 -3 -40 -6 -26 -5 -34 6 -34 8 0 14 -9
14 -20 0 -16 -7 -20 -32 -20 -29 0 -30 -1 -15 -18 10 -10 14 -22 10 -27 -12
-12 49 4 72 19 15 10 21 26 22 57 2 30 -1 39 -7 29 -7 -12 -12 -12 -22 -2 -8
8 -8 12 -1 12 6 0 11 15 11 34 0 19 3 44 7 56 4 12 3 25 -2 29 -13 8 -25 71
-14 71 5 0 11 14 13 30 5 30 -6 41 -15 16z m-30 -46 c1 -15 -4 -20 -20 -19
-12 0 -16 3 -9 6 6 2 12 11 12 19 0 22 16 17 17 -6z m-27 -60 c0 -5 -2 -10 -4
-10 -3 0 -8 5 -11 10 -3 6 -1 10 4 10 6 0 11 -4 11 -10z m64 -205 c-4 -8 -11
-15 -16 -15 -6 0 -5 6 2 15 7 8 14 15 16 15 2 0 1 -7 -2 -15z"/>
<path d="M373 453 c9 -2 23 -2 30 0 6 3 -1 5 -18 5 -16 0 -22 -2 -12 -5z"/>
<path d="M35 325 c-26 -67 -26 -158 0 -209 11 -22 22 -37 25 -35 3 2 21 -6 41
-18 20 -13 53 -27 75 -32 28 -6 32 -9 14 -10 -14 0 -44 8 -67 18 -41 19 -42
19 -40 1 2 -29 64 -36 272 -32 93 2 116 5 101 14 -18 10 -18 11 5 24 17 9 19
13 8 14 -30 0 -30 28 -1 35 15 4 21 10 15 12 -21 8 -15 21 15 31 l27 10 -27 1
c-18 1 -28 6 -28 16 0 8 5 15 11 15 8 0 8 4 1 13 -5 6 -8 23 -7 37 1 14 -2 28
-8 31 -5 4 0 10 12 14 29 9 26 23 -6 27 -20 2 -27 8 -25 20 2 12 -2 16 -11 12
-10 -3 -12 -19 -9 -61 3 -40 2 -54 -7 -49 -6 4 -14 0 -18 -10 -4 -10 -2 -19 5
-22 17 -5 15 -20 -9 -59 -27 -43 -35 -37 -15 11 17 41 6 50 -13 10 -6 -15 -14
-24 -17 -21 -3 3 2 19 10 36 9 17 16 55 16 88 0 70 -15 102 -23 52 -3 -19 -14
-65 -24 -102 -14 -52 -23 -69 -39 -73 -12 -3 -28 -21 -37 -40 -16 -32 -19 -34
-67 -34 -58 0 -110 22 -111 48 0 9 -6 73 -13 142 l-12 125 -19 -50z"/>
<path d="M112 340 c0 -14 2 -19 5 -12 2 6 2 18 0 25 -3 6 -5 1 -5 -13z"/>
<path d="M301 344 c0 -11 3 -14 6 -6 3 7 2 16 -1 19 -3 4 -6 -2 -5 -13z"/>
<path d="M402 300 c0 -8 4 -26 8 -40 6 -20 8 -21 8 -5 0 11 -3 29 -8 40 -5 12
-8 14 -8 5z"/>
<path d="M102 280 c0 -14 2 -19 5 -12 2 6 2 18 0 25 -3 6 -5 1 -5 -13z"/>
<path d="M292 270 c0 -14 2 -19 5 -12 2 6 2 18 0 25 -3 6 -5 1 -5 -13z"/>
<path d="M281 204 c0 -11 3 -14 6 -6 3 7 2 16 -1 19 -3 4 -6 -2 -5 -13z"/>
<path d="M81 174 c0 -11 3 -14 6 -6 3 7 2 16 -1 19 -3 4 -6 -2 -5 -13z"/>
<path d="M668 111 c-25 -15 -48 -65 -34 -78 6 -6 45 3 62 14 7 5 9 21 5 44 -6
35 -6 35 -33 20z"/>
</g>
</svg>
