<?xml version="1.0" standalone="no"?>
<!DOCTYPE svg PUBLIC "-//W3C//DTD SVG 20010904//EN"
 "http://www.w3.org/TR/2001/REC-SVG-20010904/DTD/svg10.dtd">
<svg version="1.0" xmlns="http://www.w3.org/2000/svg"
 width="621.000000pt" height="81.000000pt" viewBox="0 0 621.000000 81.000000"
 preserveAspectRatio="xMidYMid meet">

<g transform="translate(0.000000,81.000000) scale(0.100000,-0.100000)"
fill="#000000" stroke="none">
<path d="M703 747 c-12 -27 -47 -37 -124 -37 -35 0 -49 4 -49 14 0 16 -183 31
-188 16 -6 -16 -30 -11 -41 8 -6 9 -10 13 -11 7 0 -44 62 -60 237 -60 84 0
145 -3 135 -7 -15 -6 -14 -7 3 -8 l20 -1 -20 -9 c-11 -5 -33 -9 -50 -10 l-30
-1 24 -13 c20 -11 28 -11 53 3 25 14 29 14 38 1 11 -17 13 -10 10 38 -1 18 4
40 11 48 8 10 9 18 2 25 -6 6 -13 1 -20 -14z"/>
<path d="M488 673 c7 -3 16 -2 19 1 4 3 -2 6 -13 5 -11 0 -14 -3 -6 -6z"/>
<path d="M329 631 c11 -7 10 -10 -4 -12 -18 -4 -18 -5 1 -23 18 -19 18 -19
-44 -14 -49 5 -62 3 -62 -8 0 -8 8 -14 18 -14 10 0 25 -9 34 -19 13 -16 30
-19 92 -19 64 -1 99 9 85 23 -11 10 -99 11 -108 2 -8 -8 -11 -7 -11 5 0 25 82
48 171 48 64 0 77 -3 73 -14 -3 -8 -13 -17 -22 -19 -10 -3 -3 -5 14 -6 20 -1
31 -6 31 -16 0 -8 -7 -15 -14 -15 -8 0 -11 -5 -7 -11 4 -6 20 -8 40 -4 27 5
34 3 34 -9 0 -9 -12 -18 -27 -22 -46 -10 -49 -12 -18 -13 59 -1 72 8 78 52 3
23 3 53 0 68 l-5 26 -146 -3 c-81 -2 -136 0 -122 4 31 10 13 17 -50 21 -31 1
-41 -1 -31 -8z m321 -41 c0 -5 -4 -10 -10 -10 -5 0 -10 5 -10 10 0 6 5 10 10
10 6 0 10 -4 10 -10z"/>
<path d="M383 488 c18 -6 36 -6 55 0 24 9 20 10 -28 10 -48 0 -52 -1 -27 -10z"/>
<path d="M260 480 c0 -6 11 -15 24 -20 25 -9 96 -75 96 -88 0 -4 9 -13 19 -19
17 -10 18 -9 13 10 -3 12 -10 26 -16 30 -6 5 -3 6 9 4 70 -17 75 -17 75 -3 0
9 -17 16 -50 20 -53 7 -119 38 -133 62 -9 16 -37 19 -37 4z"/>
<path d="M667 456 c-3 -7 -23 -16 -45 -20 -33 -5 -39 -9 -35 -24 2 -11 -2 -26
-10 -34 -10 -9 -12 -20 -7 -29 6 -8 4 -16 -3 -21 -7 -4 7 -8 30 -8 41 0 48 -8
29 -38 -4 -7 -6 -16 -3 -18 2 -3 1 -21 -3 -40 -6 -26 -5 -34 6 -34 8 0 14 -9
14 -20 0 -16 -7 -20 -32 -20 -29 0 -30 -1 -15 -18 10 -10 14 -22 10 -27 -12
-12 49 4 72 19 15 10 21 26 22 57 2 30 -1 39 -7 29 -7 -12 -12 -12 -22 -2 -8
8 -8 12 -1 12 6 0 11 15 11 34 0 19 3 44 7 56 4 12 3 25 -2 29 -13 8 -25 71
-14 71 5 0 11 14 13 30 5 30 -6 41 -15 16z m-30 -46 c1 -15 -4 -20 -20 -19
-12 0 -16 3 -9 6 6 2 12 11 12 19 0 22 16 17 17 -6z m-27 -60 c0 -5 -2 -10 -4
-10 -3 0 -8 5 -11 10 -3 6 -1 10 4 10 6 0 11 -4 11 -10z m64 -205 c-4 -8 -11
-15 -16 -15 -6 0 -5 6 2 15 7 8 14 15 16 15 2 0 1 -7 -2 -15z"/>
<path d="M373 453 c9 -2 23 -2 30 0 6 3 -1 5 -18 5 -16 0 -22 -2 -12 -5z"/>
<path d="M35 325 c-26 -67 -26 -158 0 -209 11 -22 22 -37 25 -35 3 2 21 -6 41
-18 20 -13 53 -27 75 -32 28 -6 32 -9 14 -10 -14 0 -44 8 -67 18 -41 19 -42
19 -40 1 2 -29 64 -36 272 -32 93 2 116 5 101 14 -18 10 -18 11 5 24 17 9 19
13 8 14 -30 0 -30 28 -1 35 15 4 21 10 15 12 -21 8 -15 21 15 31 l27 10 -27 1
c-18 1 -28 6 -28 16 0 8 5 15 11 15 8 0 8 4 1 13 -5 6 -8 23 -7 37 1 14 -2 28
-8 31 -5 4 0 10 12 14 29 9 26 23 -6 27 -20 2 -27 8 -25 20 2 12 -2 16 -11 12
-10 -3 -12 -19 -9 -61 3 -40 2 -54 -7 -49 -6 4 -14 0 -18 -10 -4 -10 -2 -19 5
-22 17 -5 15 -20 -9 -59 -27 -43 -35 -37 -15 11 17 41 6 50 -13 10 -6 -15 -14
-24 -17 -21 -3 3 2 19 10 36 9 17 16 55 16 88 0 70 -15 102 -23 52 -3 -19 -14
-65 -24 -102 -14 -52 -23 -69 -39 -73 -12 -3 -28 -21 -37 -40 -16 -32 -19 -34
-67 -34 -58 0 -110 22 -111 48 0 9 -6 73 -13 142 l-12 125 -19 -50z"/>
<path d="M112 340 c0 -14 2 -19 5 -12 2 6 2 18 0 25 -3 6 -5 1 -5 -13z"/>
<path d="M301 344 c0 -11 3 -14 6 -6 3 7 2 16 -1 19 -3 4 -6 -2 -5 -13z"/>
<path d="M402 300 c0 -8 4 -26 8 -40 6 -20 8 -21 8 -5 0 11 -3 29 -8 40 -5 12
-8 14 -8 5z"/>
<path d="M102 280 c0 -14 2 -19 5 -12 2 6 2 18 0 25 -3 6 -5 1 -5 -13z"/>
<path d="M292 270 c0 -14 2 -19 5 -12 2 6 2 18 0 25 -3 6 -5 1 -5 -13z"/>
<path d="M281 204 c0 -11 3 -14 6 -6 3 7 2 16 -1 19 -3 4 -6 -2 -5 -13z"/>
<path d="M81 174 c0 -11 3 -14 6 -6 3 7 2 16 -1 19 -3 4 -6 -2 -5 -13z"/>
<path d="M668 111 c-25 -15 -48 -65 -34 -78 6 -6 45 3 62 14 7 5 9 21 5 44 -6
35 -6 35 -33 20z"/>
</g>
</svg>
