<svg width="263" height="130" viewBox="0 0 263 130" fill="none" xmlns="http://www.w3.org/2000/svg">
<circle cx="31.0745" cy="66.4225" r="8.75145" fill="#007CFF" fill-opacity="0.05" stroke="#007CFF" stroke-width="0.646219"/>
<rect x="25.7811" y="21.0497" width="160.317" height="18.1491" rx="7.75463" fill="#007CFF" fill-opacity="0.05"/>
<rect x="80.9846" y="57.3479" width="160.317" height="18.1491" rx="7.75463" fill="#007CFF" fill-opacity="0.05"/>
<rect x="50.7361" y="94.4023" width="110.407" height="18.1491" rx="7.75463" fill="#007CFF" fill-opacity="0.05"/>
<rect x="25.7811" y="37.0697" width="98.3077" height="65.0343" rx="5.16975" transform="rotate(-12.9733 25.7811 37.0697)" fill="#FCFEFF"/>
<rect x="26.9433" y="37.7967" width="96.369" height="63.0957" rx="4.20043" transform="rotate(-12.9733 26.9433 37.7967)" stroke="#007CFF" stroke-opacity="0.75" stroke-width="1.93866"/>
<rect x="77.2035" y="51.2982" width="98.3077" height="65.0343" rx="5.16975" fill="#FCFEFF"/>
<rect x="78.1729" y="52.2675" width="96.369" height="63.0957" rx="4.20043" stroke="#007CFF" stroke-opacity="0.75" stroke-width="1.93866"/>
<rect x="79.4722" y="68.6911" width="93.7704" height="13.6118" fill="#007CFF" fill-opacity="0.05"/>
<path d="M79.4722 68.6911H115.014M118.417 68.6911H127.114M130.517 68.6911H165.302M172.864 82.3029H147.909M139.213 82.3029H96.1089" stroke="#007CFF" stroke-width="1.93866" stroke-linecap="round"/>
<circle cx="195.173" cy="103.477" r="8.75145" fill="#007CFF" fill-opacity="0.05" stroke="#007CFF" stroke-width="0.646219"/>
<circle cx="213.322" cy="30.1242" r="9.07456" fill="#007CFF" fill-opacity="0.05"/>
</svg>
