<svg width="123" height="72" viewBox="0 0 123 72" fill="none" xmlns="http://www.w3.org/2000/svg">
<rect y="33" width="83" height="15" rx="7.5" fill="#D9DBDB" fill-opacity="0.25"/>
<rect x="30" y="18" width="83" height="15" rx="7.5" fill="#D9DBDB" fill-opacity="0.25"/>
<rect x="11" y="3" width="83" height="15" rx="7.5" fill="#D9DBDB" fill-opacity="0.25"/>
<rect x="36" y="48" width="87" height="15" rx="7.5" fill="#D9DBDB" fill-opacity="0.25"/>
<circle cx="19.5" cy="60.5" r="5.5" fill="#D9DBDB" fill-opacity="0.25"/>
<circle cx="110.5" cy="10.5" r="5" stroke="#C4C4C4" stroke-opacity="0.25"/>
<mask id="path-7-inside-1_1123_423" fill="white">
<path d="M79.0499 48.6557C83.0849 41.1687 84.0733 32.4129 81.8091 24.2148C79.5449 16.0167 74.2029 9.00927 66.8974 4.65432C59.5919 0.299367 50.8871 -1.06683 42.5987 0.8407C34.3103 2.74823 27.0784 7.78219 22.4116 14.8925C17.7448 22.0028 16.0034 30.6404 17.5507 39.0036C19.098 47.3667 23.8145 54.8095 30.7163 59.7795C37.6181 64.7494 46.1724 66.8627 54.5946 65.6786C63.0168 64.4944 70.6566 60.1043 75.9204 53.4238L68.2367 47.3694C64.5332 52.0696 59.1581 55.1583 53.2326 55.9915C47.307 56.8246 41.2886 55.3377 36.4327 51.841C31.5768 48.3444 28.2585 43.1079 27.1699 37.2239C26.0812 31.3399 27.3064 25.2628 30.5898 20.2602C33.8732 15.2577 38.9613 11.716 44.7927 10.3739C50.6241 9.03182 56.7485 9.99303 61.8884 13.057C67.0283 16.121 70.7867 21.0511 72.3797 26.819C73.9727 32.5869 73.2773 38.7472 70.4385 44.0148L79.0499 48.6557Z"/>
</mask>
<path d="M79.0499 48.6557C83.0849 41.1687 84.0733 32.4129 81.8091 24.2148C79.5449 16.0167 74.2029 9.00927 66.8974 4.65432C59.5919 0.299367 50.8871 -1.06683 42.5987 0.8407C34.3103 2.74823 27.0784 7.78219 22.4116 14.8925C17.7448 22.0028 16.0034 30.6404 17.5507 39.0036C19.098 47.3667 23.8145 54.8095 30.7163 59.7795C37.6181 64.7494 46.1724 66.8627 54.5946 65.6786C63.0168 64.4944 70.6566 60.1043 75.9204 53.4238L68.2367 47.3694C64.5332 52.0696 59.1581 55.1583 53.2326 55.9915C47.307 56.8246 41.2886 55.3377 36.4327 51.841C31.5768 48.3444 28.2585 43.1079 27.1699 37.2239C26.0812 31.3399 27.3064 25.2628 30.5898 20.2602C33.8732 15.2577 38.9613 11.716 44.7927 10.3739C50.6241 9.03182 56.7485 9.99303 61.8884 13.057C67.0283 16.121 70.7867 21.0511 72.3797 26.819C73.9727 32.5869 73.2773 38.7472 70.4385 44.0148L79.0499 48.6557Z" fill="white" stroke="#C4C4C4" stroke-opacity="0.54" stroke-width="4" mask="url(#path-7-inside-1_1123_423)"/>
<path d="M72.5 40.5L98.9304 60.3923L91.3768 71.1454L65.6741 50.4144L69.9196 45.1792L72.5 40.5Z" fill="white"/>
<path d="M97.5559 60.6094L91.1728 69.6961L67.0824 50.2655L70.6963 45.809L70.7523 45.7399L70.7952 45.6621L72.8193 41.9919L97.5559 60.6094Z" stroke="#C4C4C4" stroke-opacity="0.54" stroke-width="2"/>
</svg>
