<svg width="120" height="120" viewBox="0 0 120 120" fill="none" xmlns="http://www.w3.org/2000/svg">
<g clip-path="url(#clip0_2054_1184)">
<g clip-path="url(#clip1_2054_1184)">
<mask id="path-1-inside-1_2054_1184" fill="white">
<path d="M120 60C120 93.1371 93.1371 120 60 120C26.8629 120 0 93.1371 0 60C0 26.8629 26.8629 0 60 0C93.1371 0 120 26.8629 120 60ZM6 60C6 89.8234 30.1766 114 60 114C89.8234 114 114 89.8234 114 60C114 30.1766 89.8234 6 60 6C30.1766 6 6 30.1766 6 60Z"/>
</mask>
<path d="M120 60C120 93.1371 93.1371 120 60 120C26.8629 120 0 93.1371 0 60C0 26.8629 26.8629 0 60 0C93.1371 0 120 26.8629 120 60ZM6 60C6 89.8234 30.1766 114 60 114C89.8234 114 114 89.8234 114 60C114 30.1766 89.8234 6 60 6C30.1766 6 6 30.1766 6 60Z" stroke="#F5F5F5" stroke-width="12" mask="url(#path-1-inside-1_2054_1184)"/>
<path d="M120 60C120 93.1371 93.1371 120 60 120C26.8629 120 0 93.1371 0 60C0 26.8629 26.8629 0 60 0C93.1371 0 120 26.8629 120 60ZM6 60C6 89.8234 30.1766 114 60 114C89.8234 114 114 89.8234 114 60C114 30.1766 89.8234 6 60 6C30.1766 6 6 30.1766 6 60Z" fill="#04AB8D"/>
</g>
<path d="M72.5015 49.9375H70.3171C70.0109 49.9375 69.7202 50.0781 69.5327 50.3187L56.6484 66.6406L50.4702 58.8125C50.3768 58.6938 50.2576 58.5979 50.1218 58.5319C49.9859 58.4658 49.8369 58.4314 49.6859 58.4313H47.5015C47.2921 58.4313 47.1765 58.6719 47.3046 58.8344L55.864 69.6781C56.264 70.1844 57.0327 70.1844 57.4359 69.6781L72.6984 50.3375C72.8265 50.1781 72.7109 49.9375 72.5015 49.9375Z" fill="#04AB8D"/>
</g>
<defs>
<clipPath id="clip0_2054_1184">
<rect width="120" height="120" fill="white"/>
</clipPath>
<clipPath id="clip1_2054_1184">
<rect width="120" height="120" fill="white"/>
</clipPath>
</defs>
</svg>
