<svg width="33" height="33" viewBox="0 0 33 33" fill="none" xmlns="http://www.w3.org/2000/svg">
<path d="M0 16.2814C0 25.2797 7.28188 32.5628 16.2814 32.5628L17.2391 16.2814L16.2814 0C7.28309 0 0 7.28194 0 16.2814Z" fill="#FDBF13"/>
<path d="M1.91547 16.2814C1.91547 24.2028 8.36003 30.6474 16.2814 30.6474L17.2391 16.2814L16.2814 1.91547C8.36003 1.91547 1.91547 8.36003 1.91547 16.2814Z" fill="#FFDA40"/>
<path d="M14.366 14.7482V7.6618H16.2814V5.74634H10.535V7.6618H12.4505V15.3236H10.535V17.2391H12.4505V24.9009H10.535V26.8164H16.2814V24.9009H14.366V17.8145L16.2814 20.2088L16.9199 16.2814L16.2814 12.3539L14.366 14.7482Z" fill="#FF9313"/>
<path d="M16.2814 0V32.5628C25.2797 32.5628 32.5628 25.2809 32.5628 16.2814C32.5628 7.28322 25.2809 0 16.2814 0Z" fill="#FF9313"/>
<path d="M16.2814 1.91547V30.6474C24.2028 30.6474 30.6474 24.2028 30.6474 16.2814C30.6474 8.36003 24.2028 1.91547 16.2814 1.91547Z" fill="#FDBF13"/>
<path d="M22.9855 15.3237H16.3586L22.7756 7.30243L21.2799 6.10577L16.2814 12.3539V20.2089L21.2799 26.457L22.7756 25.2604L16.3586 17.2391H22.9855V15.3237Z" fill="#FF592E"/>
</svg>
