<svg width="283" height="53" viewBox="0 0 283 53" fill="none" xmlns="http://www.w3.org/2000/svg">
<path d="M57.6778 39V13.62H63.1138V28.632H63.1858L69.7018 21.324H76.1458L68.6578 29.784L76.5058 39H69.9538L63.1858 31.368H63.1138V39H57.6778ZM85.9668 39.396C84.0708 39.396 82.4148 39.024 80.9988 38.28C79.6068 37.512 78.5268 36.444 77.7588 35.076C76.9908 33.684 76.6068 32.04 76.6068 30.144C76.6068 28.272 76.9908 26.652 77.7588 25.284C78.5268 23.892 79.6068 22.824 80.9988 22.08C82.4148 21.336 84.0708 20.964 85.9668 20.964C87.8628 20.964 89.5068 21.336 90.8988 22.08C92.3148 22.824 93.4068 23.892 94.1748 25.284C94.9668 26.652 95.3628 28.272 95.3628 30.144C95.3628 32.04 94.9668 33.684 94.1748 35.076C93.4068 36.444 92.3148 37.512 90.8988 38.28C89.5068 39.024 87.8628 39.396 85.9668 39.396ZM85.9668 35.328C87.1188 35.328 88.0548 34.908 88.7748 34.068C89.5188 33.228 89.8908 31.92 89.8908 30.144C89.8908 28.392 89.5188 27.108 88.7748 26.292C88.0548 25.452 87.1188 25.032 85.9668 25.032C84.8148 25.032 83.8788 25.452 83.1588 26.292C82.4388 27.108 82.0788 28.392 82.0788 30.144C82.0788 31.92 82.4388 33.228 83.1588 34.068C83.8788 34.908 84.8148 35.328 85.9668 35.328ZM109.578 39.396C108.33 39.396 107.202 39.12 106.194 38.568C105.21 38.016 104.478 37.284 103.998 36.372V39H98.67V13.62H104.106V23.7C104.634 22.86 105.378 22.2 106.338 21.72C107.322 21.216 108.402 20.964 109.578 20.964C111.114 20.964 112.458 21.336 113.61 22.08C114.786 22.824 115.698 23.88 116.346 25.248C116.994 26.616 117.318 28.248 117.318 30.144C117.318 32.04 116.994 33.684 116.346 35.076C115.698 36.444 114.786 37.512 113.61 38.28C112.458 39.024 111.114 39.396 109.578 39.396ZM107.958 35.328C109.11 35.328 110.046 34.908 110.766 34.068C111.486 33.228 111.846 31.92 111.846 30.144C111.846 28.392 111.486 27.108 110.766 26.292C110.046 25.452 109.11 25.032 107.958 25.032C106.782 25.032 105.834 25.452 105.114 26.292C104.394 27.108 104.034 28.392 104.034 30.144C104.034 31.92 104.394 33.228 105.114 34.068C105.834 34.908 106.782 35.328 107.958 35.328ZM129.139 39.396C127.243 39.396 125.587 39.024 124.171 38.28C122.779 37.512 121.699 36.444 120.931 35.076C120.163 33.684 119.779 32.04 119.779 30.144C119.779 28.272 120.163 26.652 120.931 25.284C121.699 23.892 122.779 22.824 124.171 22.08C125.587 21.336 127.243 20.964 129.139 20.964C131.035 20.964 132.679 21.336 134.071 22.08C135.487 22.824 136.579 23.892 137.347 25.284C138.139 26.652 138.535 28.272 138.535 30.144C138.535 32.04 138.139 33.684 137.347 35.076C136.579 36.444 135.487 37.512 134.071 38.28C132.679 39.024 131.035 39.396 129.139 39.396ZM129.139 35.328C130.291 35.328 131.227 34.908 131.947 34.068C132.691 33.228 133.063 31.92 133.063 30.144C133.063 28.392 132.691 27.108 131.947 26.292C131.227 25.452 130.291 25.032 129.139 25.032C127.987 25.032 127.051 25.452 126.331 26.292C125.611 27.108 125.251 28.392 125.251 30.144C125.251 31.92 125.611 33.228 126.331 34.068C127.051 34.908 127.987 35.328 129.139 35.328ZM150.446 39.396C148.526 39.396 146.846 39.024 145.406 38.28C143.99 37.512 142.898 36.432 142.13 35.04C141.362 33.648 140.978 32.004 140.978 30.108C140.978 28.212 141.362 26.58 142.13 25.212C142.898 23.844 143.99 22.8 145.406 22.08C146.846 21.336 148.526 20.964 150.446 20.964C151.574 20.964 152.714 21.132 153.866 21.468C155.018 21.804 155.954 22.284 156.674 22.908L155.162 26.652C154.562 26.172 153.89 25.8 153.146 25.536C152.402 25.248 151.682 25.104 150.986 25.104C149.57 25.104 148.466 25.548 147.674 26.436C146.906 27.3 146.522 28.536 146.522 30.144C146.522 31.728 146.906 32.976 147.674 33.888C148.466 34.776 149.57 35.22 150.986 35.22C151.658 35.22 152.366 35.088 153.11 34.824C153.878 34.56 154.562 34.176 155.162 33.672L156.674 37.416C155.954 38.04 155.018 38.532 153.866 38.892C152.714 39.228 151.574 39.396 150.446 39.396ZM167.178 39.396C165.282 39.396 163.626 39.024 162.21 38.28C160.818 37.512 159.738 36.444 158.97 35.076C158.202 33.684 157.818 32.04 157.818 30.144C157.818 28.272 158.202 26.652 158.97 25.284C159.738 23.892 160.818 22.824 162.21 22.08C163.626 21.336 165.282 20.964 167.178 20.964C169.074 20.964 170.718 21.336 172.11 22.08C173.526 22.824 174.618 23.892 175.386 25.284C176.178 26.652 176.574 28.272 176.574 30.144C176.574 32.04 176.178 33.684 175.386 35.076C174.618 36.444 173.526 37.512 172.11 38.28C170.718 39.024 169.074 39.396 167.178 39.396ZM167.178 35.328C168.33 35.328 169.266 34.908 169.986 34.068C170.73 33.228 171.102 31.92 171.102 30.144C171.102 28.392 170.73 27.108 169.986 26.292C169.266 25.452 168.33 25.032 167.178 25.032C166.026 25.032 165.09 25.452 164.37 26.292C163.65 27.108 163.29 28.392 163.29 30.144C163.29 31.92 163.65 33.228 164.37 34.068C165.09 34.908 166.026 35.328 167.178 35.328ZM186.397 39.396C184.141 39.396 182.473 38.772 181.393 37.524C180.337 36.276 179.809 34.404 179.809 31.908V21.324H185.245V32.052C185.245 34.14 186.145 35.184 187.945 35.184C188.977 35.184 189.817 34.824 190.465 34.104C191.137 33.36 191.473 32.388 191.473 31.188V21.324H196.909V39H191.617V36.588C190.441 38.46 188.701 39.396 186.397 39.396ZM201.115 39V21.324H206.443V23.916C207.043 22.956 207.847 22.224 208.855 21.72C209.863 21.216 210.991 20.964 212.239 20.964C214.327 20.964 215.887 21.576 216.919 22.8C217.951 24 218.467 25.86 218.467 28.38V39H213.031V28.632C213.031 27.408 212.803 26.532 212.347 26.004C211.891 25.452 211.219 25.176 210.331 25.176C209.179 25.176 208.255 25.536 207.559 26.256C206.887 26.976 206.551 27.936 206.551 29.136V39H201.115ZM231.202 39.396C226.234 39.396 223.75 36.984 223.75 32.16V25.392H220.401V21.324H223.75V16.14H229.186V21.324H234.406V25.392H229.186V31.944C229.186 32.952 229.414 33.708 229.87 34.212C230.35 34.716 231.106 34.968 232.138 34.968C232.45 34.968 232.774 34.932 233.11 34.86C233.47 34.788 233.854 34.692 234.262 34.572L235.054 38.532C234.55 38.796 233.95 39 233.254 39.144C232.558 39.312 231.874 39.396 231.202 39.396ZM246.084 39.396C243.996 39.396 242.196 39.024 240.684 38.28C239.196 37.512 238.044 36.444 237.228 35.076C236.436 33.684 236.04 32.052 236.04 30.18C236.04 28.356 236.424 26.76 237.192 25.392C237.984 24 239.052 22.92 240.396 22.152C241.764 21.36 243.336 20.964 245.112 20.964C247.68 20.964 249.72 21.78 251.232 23.412C252.744 25.02 253.5 27.204 253.5 29.964V31.332H241.224C241.416 32.724 241.92 33.744 242.736 34.392C243.576 35.016 244.728 35.328 246.192 35.328C247.152 35.328 248.124 35.184 249.108 34.896C250.092 34.608 250.98 34.164 251.772 33.564L253.212 37.2C252.324 37.872 251.232 38.412 249.936 38.82C248.664 39.204 247.38 39.396 246.084 39.396ZM245.328 24.564C244.176 24.564 243.24 24.912 242.52 25.608C241.824 26.304 241.392 27.276 241.224 28.524H249C248.856 25.884 247.632 24.564 245.328 24.564ZM256.662 39V21.324H261.99V24.384C262.83 22.32 264.63 21.18 267.39 20.964L268.974 20.856L269.298 25.428L266.238 25.752C263.55 26.016 262.206 27.384 262.206 29.856V39H256.662Z" fill="#007CFF"/>
<path d="M0 23.682C0 36.7705 10.5918 47.3641 23.682 47.3641L25.0751 23.682L23.682 0C10.5936 0 0 10.5919 0 23.682Z" fill="#FDBF13"/>
<path d="M2.78613 23.682C2.78613 35.2041 12.16 44.578 23.682 44.578L25.075 23.682L23.682 2.78613C12.16 2.78613 2.78613 12.16 2.78613 23.682Z" fill="#FFDA40"/>
<path d="M20.896 21.4519V11.1444H23.682V8.35831H15.3236V11.1444H18.1098V22.2889H15.3236V25.075H18.1098V36.2195H15.3236V39.0057H23.682V36.2195H20.896V25.912L23.682 29.3946L24.6107 23.682L23.682 17.9693L20.896 21.4519Z" fill="#FF9313"/>
<path d="M23.682 0V47.3641C36.7704 47.3641 47.364 36.7722 47.364 23.682C47.364 10.5938 36.7722 0 23.682 0Z" fill="#FF9313"/>
<path d="M23.682 2.78613V44.578C35.204 44.578 44.578 35.2041 44.578 23.682C44.578 12.16 35.204 2.78613 23.682 2.78613Z" fill="#FDBF13"/>
<path d="M33.4334 22.289H23.7943L33.1281 10.6217L30.9526 8.88113L23.682 17.9693V29.3948L30.9526 38.4829L33.1281 36.7424L23.7943 25.0751H33.4334V22.289Z" fill="#FF592E"/>
</svg>
