<svg width="25" height="25" viewBox="0 0 25 25" fill="none" xmlns="http://www.w3.org/2000/svg">
<rect width="25" height="25" rx="7" fill="#FA9E6A" fill-opacity="0.15"/>
<path d="M9.00312 7.97726C8.11752 7.71355 7.36775 7.74571 6.83305 8.07034C6.29834 8.39498 5.99855 9.00004 5.96535 9.82158C5.93216 10.6431 6.16679 11.6506 6.64445 12.7377C7.12212 13.8247 7.82508 14.9509 8.67906 15.9972C9.53303 17.0436 10.5063 17.9712 11.4961 18.6821C12.4858 19.393 13.4552 19.8608 14.3019 20.036C15.1487 20.2112 15.8412 20.0874 16.3064 19.6775C16.7716 19.2677 16.9921 18.5871 16.9447 17.7077L15.1466 16.4789C15.1785 17.0701 15.0302 17.5277 14.7174 17.8033C14.4047 18.0788 13.939 18.1621 13.3697 18.0443C12.8004 17.9265 12.1486 17.612 11.4831 17.134C10.8177 16.656 10.1633 16.0323 9.58909 15.3288C9.01491 14.6253 8.54226 13.8681 8.2211 13.1372C7.89993 12.4063 7.74217 11.7289 7.76449 11.1765C7.78681 10.6241 7.98838 10.2173 8.3479 9.99901C8.70742 9.78074 9.21153 9.75912 9.80698 9.93643L9.00312 7.97726Z" fill="#858585"/>
<path d="M12.4832 10.2594C12.9349 10.018 13.4361 9.94285 13.9234 10.0433C14.4107 10.1438 14.8622 10.4154 15.2209 10.8239C15.5796 11.2323 15.8292 11.7592 15.9384 12.3379C16.0475 12.9166 16.0111 13.5212 15.834 14.0751L15.4977 13.9202C15.6494 13.4461 15.6805 12.9286 15.5871 12.4333C15.4937 11.9379 15.28 11.487 14.973 11.1374C14.666 10.7878 14.2795 10.5553 13.8624 10.4693C13.4453 10.3833 13.0163 10.4476 12.6296 10.6542L12.4832 10.2594Z" fill="#858585"/>
<path d="M12.4832 10.2594C12.9349 10.018 13.4361 9.94285 13.9234 10.0433C14.4107 10.1438 14.8622 10.4154 15.2209 10.8239C15.5796 11.2323 15.8292 11.7592 15.9384 12.3379C16.0475 12.9166 16.0111 13.5212 15.834 14.0751L15.4977 13.9202C15.6494 13.4461 15.6805 12.9286 15.5871 12.4333C15.4937 11.9379 15.28 11.487 14.973 11.1374C14.666 10.7878 14.2795 10.5553 13.8624 10.4693C13.4453 10.3833 13.0163 10.4476 12.6296 10.6542L12.4832 10.2594Z" fill="#858585"/>
<path d="M13.0764 8.38905C13.7088 8.02704 14.4105 7.91427 15.0927 8.065C15.775 8.21572 16.4071 8.62317 16.9092 9.23582C17.4114 9.84846 17.7609 10.6388 17.9137 11.5069C18.0665 12.3749 18.0156 13.2818 17.7675 14.1127L17.2968 13.8803C17.5092 13.1691 17.5527 12.3929 17.4219 11.6499C17.2912 10.9069 16.992 10.2304 16.5622 9.70604C16.1324 9.18165 15.5913 8.8329 15.0073 8.70389C14.4234 8.57488 13.8228 8.6714 13.2815 8.98126L13.0764 8.38905Z" fill="#858585"/>
<path d="M13.0764 8.38905C13.7088 8.02704 14.4105 7.91427 15.0927 8.065C15.775 8.21572 16.4071 8.62317 16.9092 9.23582C17.4114 9.84846 17.7609 10.6388 17.9137 11.5069C18.0665 12.3749 18.0156 13.2818 17.7675 14.1127L17.2968 13.8803C17.5092 13.1691 17.5527 12.3929 17.4219 11.6499C17.2912 10.9069 16.992 10.2304 16.5622 9.70604C16.1324 9.18165 15.5913 8.8329 15.0073 8.70389C14.4234 8.57488 13.8228 8.6714 13.2815 8.98126L13.0764 8.38905Z" fill="#858585"/>
<path d="M13.6697 6.51873C14.4828 6.03606 15.3849 5.8857 16.2621 6.08666C17.1392 6.28763 17.952 6.83089 18.5976 7.64775C19.2432 8.46462 19.6926 9.51839 19.889 10.6758C20.0855 11.8332 20.0201 13.0423 19.7011 14.1502L19.0959 13.8405C19.3689 12.8922 19.4249 11.8573 19.2568 10.8666C19.0886 9.87588 18.704 8.97391 18.1514 8.27472C17.5988 7.57554 16.9031 7.11053 16.1523 6.93852C15.4015 6.7665 14.6293 6.8952 13.9334 7.30834L13.6697 6.51873Z" fill="#858585"/>
<path d="M13.6697 6.51873C14.4828 6.03606 15.3849 5.8857 16.2621 6.08666C17.1392 6.28763 17.952 6.83089 18.5976 7.64775C19.2432 8.46462 19.6926 9.51839 19.889 10.6758C20.0855 11.8332 20.0201 13.0423 19.7011 14.1502L19.0959 13.8405C19.3689 12.8922 19.4249 11.8573 19.2568 10.8666C19.0886 9.87588 18.704 8.97391 18.1514 8.27472C17.5988 7.57554 16.9031 7.11053 16.1523 6.93852C15.4015 6.7665 14.6293 6.8952 13.9334 7.30834L13.6697 6.51873Z" fill="#858585"/>
</svg>
