<svg width="25" height="25" viewBox="0 0 25 25" fill="none" xmlns="http://www.w3.org/2000/svg">
<rect width="25" height="25" rx="7" fill="#6FCDC7" fill-opacity="0.25"/>
<line y1="-0.5" x2="3.84416" y2="-0.5" transform="matrix(0 -1 0.999806 -0.0197189 8.63672 12.9979)" stroke="#858585"/>
<line x1="12.5" y1="13" x2="12.5" y2="9" stroke="#858585"/>
<line y1="-0.5" x2="3.84416" y2="-0.5" transform="matrix(0 -1 0.999814 0.0192567 17.9092 13)" stroke="#858585"/>
<path d="M6.42387 9.25L12.5 3.67839L18.5761 9.25H6.42387Z" stroke="#858585"/>
<path d="M5.64645 16.3536C5.45118 16.1583 5.45118 15.8417 5.64645 15.6464L8.82843 12.4645C9.02369 12.2692 9.34027 12.2692 9.53553 12.4645C9.7308 12.6597 9.7308 12.9763 9.53553 13.1716L6.70711 16L9.53553 18.8284C9.7308 19.0237 9.7308 19.3403 9.53553 19.5355C9.34027 19.7308 9.02369 19.7308 8.82843 19.5355L5.64645 16.3536ZM20.3536 17.6464C20.5488 17.8417 20.5488 18.1583 20.3536 18.3536L17.1716 21.5355C16.9763 21.7308 16.6597 21.7308 16.4645 21.5355C16.2692 21.3403 16.2692 21.0237 16.4645 20.8284L19.2929 18L16.4645 15.1716C16.2692 14.9763 16.2692 14.6597 16.4645 14.4645C16.6597 14.2692 16.9763 14.2692 17.1716 14.4645L20.3536 17.6464ZM15 16.5H6V15.5H15V16.5ZM9.5 17.5H20V18.5H9.5V17.5Z" fill="#858585"/>
</svg>
