<svg width="25" height="25" viewBox="0 0 25 25" fill="none" xmlns="http://www.w3.org/2000/svg">
<rect width="25" height="25" rx="7" fill="#6FCDC7" fill-opacity="0.25"/>
<path d="M11.392 15.984V15.024C11.392 14.272 11.528 13.576 11.8 12.936C12.088 12.296 12.568 11.6 13.24 10.848C13.752 10.288 14.104 9.808 14.296 9.408C14.504 9.008 14.608 8.584 14.608 8.136C14.608 7.608 14.416 7.192 14.032 6.888C13.648 6.584 13.104 6.432 12.4 6.432C10.832 6.432 9.384 7.008 8.056 8.16L7.048 5.856C7.72 5.248 8.552 4.76 9.544 4.392C10.552 4.024 11.568 3.84 12.592 3.84C13.6 3.84 14.48 4.008 15.232 4.344C16 4.68 16.592 5.144 17.008 5.736C17.44 6.328 17.656 7.024 17.656 7.824C17.656 8.56 17.488 9.248 17.152 9.888C16.832 10.528 16.256 11.224 15.424 11.976C14.672 12.664 14.152 13.264 13.864 13.776C13.576 14.288 13.392 14.8 13.312 15.312L13.216 15.984H11.392ZM10.624 21V17.664H13.984V21H10.624Z" fill="#858585"/>
</svg>
