<svg width="25" height="25" viewBox="0 0 25 25" fill="none" xmlns="http://www.w3.org/2000/svg">
<rect width="25" height="25" rx="7" fill="#FA9E6A" fill-opacity="0.15"/>
<line x1="10.6797" y1="12.5" x2="10.6797" y2="19.13" stroke="#858585"/>
<path d="M16.6985 7.75L11 13.3019L5.3015 7.75L16.6985 7.75Z" stroke="#858585"/>
<path d="M15.3536 23.3536C15.1583 23.5488 14.8417 23.5488 14.6464 23.3536L11.4645 20.1716C11.2692 19.9763 11.2692 19.6597 11.4645 19.4645C11.6597 19.2692 11.9763 19.2692 12.1716 19.4645L15 22.2929L17.8284 19.4645C18.0237 19.2692 18.3403 19.2692 18.5355 19.4645C18.7308 19.6597 18.7308 19.9763 18.5355 20.1716L15.3536 23.3536ZM16.6464 10.6464C16.8417 10.4512 17.1583 10.4512 17.3536 10.6464L20.5355 13.8284C20.7308 14.0237 20.7308 14.3403 20.5355 14.5355C20.3403 14.7308 20.0237 14.7308 19.8284 14.5355L17 11.7071L14.1716 14.5355C13.9763 14.7308 13.6597 14.7308 13.4645 14.5355C13.2692 14.3403 13.2692 14.0237 13.4645 13.8284L16.6464 10.6464ZM15.5 15.2857V23H14.5V15.2857H15.5ZM16.5 20V11H17.5V20H16.5Z" fill="#858585"/>
</svg>
